<svg width="225" height="60" viewBox="0 0 225 60" fill="none" xmlns="http://www.w3.org/2000/svg">
<g clip-path="url(#clip0_0_396)">
<path d="M25.02 0L19.1475 17.7172H0L15.4575 28.6745L9.6525 46.4801L25.02 35.5228L40.455 46.4801L34.5825 28.6745L49.95 17.7172H30.8925L25.02 0Z" fill="#E22130"/>
<path d="M103.68 16.1488C102.51 15 101.25 14.1606 99.6525 13.6746C98.145 13.1002 96.3675 12.8572 94.455 12.8572C92.52 12.8572 90.765 13.1885 88.9875 13.9397C87.2325 14.6908 85.7925 15.7511 84.6225 16.8999L84.5325 16.9883C83.9475 17.651 83.43 18.3137 83.025 19.0427C82.6875 19.7055 82.35 20.2799 82.1925 20.7659C82.035 20.4345 81.765 19.8601 81.4275 19.2857C80.8425 18.2033 80.325 17.3859 79.92 17.0545C78.75 15.729 77.4 14.8233 75.645 14.0943C73.89 13.3432 72.045 13.0118 69.93 13.0118C68.58 13.0118 66.645 13.1665 64.5525 14.1606C62.1225 15.3093 60.0975 17.1208 58.68 19.7718V13.8513H56.745V46.8999H58.68V28.1002C58.68 25.9573 58.9275 24.1458 59.445 22.489C59.94 20.8321 60.705 19.595 61.7175 18.3579C62.55 17.2092 63.81 16.3034 65.25 15.729C66.6675 15.0663 68.1975 14.7349 69.7725 14.8233C71.7075 14.9117 73.3725 15.243 74.9025 15.9058C76.32 16.5685 77.5125 17.5626 78.5025 18.7114C79.335 19.8601 79.92 20.8542 80.2575 22.003C80.7525 23.3947 80.9325 25.0516 80.9325 27.3712V46.8336H82.8675V28.2106C82.8675 25.9131 82.9575 24.0133 83.3625 22.4448C83.79 20.9647 84.375 19.8159 85.545 18.3137C86.5575 16.9883 87.8175 16.0825 89.5725 15.4198C90.99 14.9338 92.5875 14.6024 94.095 14.6024C95.7825 14.6024 97.2 14.8454 98.55 15.3535C99.9 15.8616 100.89 16.5906 101.835 17.4964C103.005 18.6451 103.86 20.0589 104.355 21.8704C104.94 23.6819 105.188 25.7364 105.188 28.299V46.8336H107.123L107.46 28.2106C107.46 25.4934 107.123 23.1075 106.448 21.1193C105.862 19.1311 105.007 17.3859 103.68 16.1488Z" fill="#231F20"/>
<path d="M141.862 22.2459C140.85 19.9484 138.915 17.6289 136.395 15.972C133.448 13.9838 129.937 13.0118 126.247 13.0118C119.543 13.0118 115.425 15.972 113.063 18.5346C110.205 21.6716 108.54 25.9573 108.54 30.3314C108.54 34.7054 110.228 38.9912 113.063 42.1281C115.335 44.6023 119.52 47.6509 126.247 47.6509C129.69 47.6509 132.795 46.8336 135.562 45.2651C138.172 43.6082 140.265 41.4654 141.862 38.5935V46.9219H143.797V13.9396H141.862V22.2459ZM140.783 24.1458C141.12 25.0515 141.458 25.9573 141.615 26.863C141.863 27.8571 141.953 28.9175 141.953 29.8233C142.043 30.9057 141.952 31.8778 141.795 32.7835C141.638 33.866 141.367 34.7717 141.03 35.5891C139.927 38.6377 138.015 41.2666 135.405 43.0118C132.885 44.8233 129.69 45.729 126.428 45.729C121.568 45.729 117.54 44.0059 114.593 40.8689C112.073 38.0633 110.475 34.1973 110.475 30.1546C110.475 25.7806 112.163 21.9146 114.998 19.0206C117.945 16.215 121.882 14.5803 126.247 14.5803C129.442 14.5803 132.547 15.486 135.067 17.0545C137.677 18.9543 139.68 21.3402 140.783 24.1458Z" fill="#231F20"/>
<path d="M151.2 18.866C152.955 17.2975 154.732 16.3034 156.487 15.5744C158.242 14.9117 160.177 14.4919 162.54 14.4919H162.697C165.555 14.4919 168.48 15.3093 170.932 16.7231C173.79 18.5346 175.972 21.0089 177.142 24.1458L177.232 24.3005H179.415L179.257 23.9691C177.907 20.2578 175.387 17.2092 172.035 15.243C169.267 13.5862 165.915 12.7688 162.63 12.7688C157.77 12.7688 153.315 14.5803 150.03 17.8056C146.745 21.0309 144.9 25.4713 144.9 30.243C144.9 34.6834 146.655 38.9691 149.512 42.1061C152.797 45.6407 157.41 47.5405 162.945 47.5405C166.545 47.5405 170.077 46.458 172.935 44.4919C175.792 42.5258 177.975 39.7865 179.235 36.4949L179.392 36.1635H177.21L177.12 36.3181C176.287 38.704 174.51 41.0236 172.17 42.6583C169.492 44.7128 166.05 45.7069 162.517 45.7069C160.425 45.7069 158.4 45.2872 156.465 44.5582C154.53 43.7408 152.932 42.6583 151.425 41.3329C149.917 39.8527 148.815 38.1959 147.982 36.2298C147.15 34.3299 146.722 32.1871 146.722 30.0442C146.722 27.9013 147.217 25.6701 147.982 23.704C148.68 21.8483 149.85 20.1915 151.2 18.866ZM173.857 18.7114C175.365 20.1031 176.625 21.9367 177.457 24.0795C176.625 22.003 175.365 20.2798 173.857 18.7114Z" fill="#231F20"/>
<path d="M206.595 13.7629H204.412L204.322 13.9175C204.322 14.0722 201.037 21.5832 197.775 29.1605L191.317 44.0722L185.197 29.1605C181.26 19.2636 178.987 13.9838 178.987 13.9175L178.897 13.7629H176.715L190.147 46.6568L184.095 60H186.277L186.367 59.8453C186.367 59.8453 186.525 59.4256 186.795 58.7629C187.807 56.4654 190.575 50.1031 193.77 42.9455C194.602 41.0456 195.457 39.0795 196.38 37.0913L204.277 19.1973C205.627 16.1487 206.46 14.1605 206.46 14.0942L206.595 13.7629Z" fill="#231F20"/>
<path d="M221.715 30.8174C219.87 29.4919 217.597 28.8292 215.325 28.3432L215.078 28.2548C212.468 27.5037 210.803 26.7747 209.7 25.9573C208.44 24.8748 207.765 23.5714 207.675 21.5832C207.675 20.6775 207.765 19.7717 208.103 19.0206C208.35 18.2032 208.868 17.5405 209.453 16.8778C210.128 16.1267 210.96 15.6406 211.793 15.2209C212.805 14.8012 213.818 14.6465 214.897 14.6465H215.055C216.067 14.6465 216.99 14.8012 217.732 15.1325C218.565 15.4639 219.33 15.9499 219.915 16.5243C220.5 17.0987 221.017 17.8498 221.332 18.6672C221.67 19.4845 221.827 20.3903 221.827 21.3844V21.6274H223.762V21.4286C223.762 19.0427 222.84 16.8999 221.332 15.3314C219.735 13.7629 217.552 13.0339 214.875 13.0339C212.535 13.0339 210.263 13.785 208.575 15.0884C206.64 16.6568 205.718 18.8881 205.718 21.6053C205.808 24.1679 206.73 26.0457 208.395 27.4595C210.15 28.8513 212.513 29.6024 214.853 30.1767C217.71 30.8395 219.712 31.7452 220.972 32.894C222.322 34.2194 222.907 35.7879 222.997 37.9971V38.2401C222.997 39.3225 222.84 40.3829 222.412 41.2003C221.985 42.106 221.49 42.9234 220.725 43.5862C220.05 44.3373 219.127 44.9116 218.205 45.3093C217.192 45.729 216.112 45.8837 215.01 45.8837C212.58 45.8837 210.398 45.1325 208.89 43.7408C207.383 42.2607 206.618 40.2725 206.55 37.8866V37.6436L204.615 37.732V38.1517C204.615 38.2401 204.615 38.3063 204.615 38.3947C204.615 39.5434 204.863 40.6259 205.29 41.6863C205.718 42.7688 206.303 43.7408 207.135 44.4919C208.148 45.486 209.318 46.3034 210.668 46.7894C212.018 47.2754 213.435 47.6068 215.033 47.6068C216.45 47.6068 217.8 47.2754 219.06 46.7894C220.32 46.215 221.4 45.4639 222.345 44.5582C223.177 43.6524 223.942 42.57 224.37 41.4212C224.865 40.2725 225.045 39.0353 224.955 37.7099C224.82 34.5287 223.717 32.3196 221.715 30.8174Z" fill="#231F20"/>
<path d="M205.492 11.2887L207.765 9.72019L210.037 11.2887L209.115 8.65981L211.455 7.00296H208.687L207.765 4.44037L206.932 7.00296H204.165L206.347 8.65981L205.492 11.2887Z" fill="#231F20"/>
</g>
<defs>
<clipPath id="clip0_0_396">
<rect width="225" height="60" fill="white"/>
</clipPath>
</defs>
</svg>
